<svg fill="none" height="24" viewBox="0 0 24 24" width="24" xmlns="http://www.w3.org/2000/svg"><g stroke="#292d32" stroke-linecap="round" stroke-linejoin="round" stroke-width="1.5"><g stroke-miterlimit="10"><path d="m7 12c-4 0-4 1.79-4 4v1c0 2.76 0 5 5 5h8c4 0 5-2.24 5-5v-1c0-2.21 0-4-4-4-1 0-1.28.21-1.8.6l-1.02 1.08c-1.18 1.26-3.18 1.26-4.37 0l-1.01-1.08c-.52-.39-.8-.6-1.8-.6z"/><path d="m5 9.95996v2.04004"/><path d="m19 12v-6c0-2.21 0-4-4-4h-6c-4 0-4 1.79-4 4"/></g><path d="m10.3301 9.2002h3.33"/><path d="m13.6602 6.2002h.84"/><path d="m9.5 6.2002h1.58"/></g></svg>